{
  "accessors": [
    {
      "bufferView": 2,
      "componentType": 5126,
      "count": 842,
      "max": [
        0.31879299879074097,
        0.12834200263023376,
        1.0250049829483032
      ],
      "min": [
        -0.3203909993171692,
        -0.18018700182437897,
        0.11319600045681
      ],
      "type": "VEC3"
    },
    {
      "bufferView": 2,
      "byteOffset": 10104,
      "componentType": 5126,
      "count": 842,
      "max": [
        0.9997093081474304,
        0.999987006187439,
        0.8767877817153931
      ],
      "min": [
        -0.9888893961906433,
        -0.9996241927146912,
        -0.9997218251228333
      ],
      "type": "VEC3"
    },
    {
      "bufferView": 1,
      "componentType": 5126,
      "count": 842,
      "max": [
        0.9696660041809082,
        -0.009277000091969967
      ],
      "min": [
        -0.012389999814331532,
        -0.9960939884185791
      ],
      "type": "VEC2"
    },
    {
      "bufferView": 0,
      "componentType": 5125,
      "count": 3903,
      "type": "SCALAR"
    },
    {
      "bufferView": 2,
      "byteOffset": 20208,
      "componentType": 5126,
      "count": 847,
      "max": [
        0.1845099925994873,
        0.1630299985408783,
        1.1342699527740479
      ],
      "min": [
        -0.18610699474811554,
        -0.18521499633789063,
        -0.002535999985411763
      ],
      "type": "VEC3"
    },
    {
      "bufferView": 2,
      "byteOffset": 30372,
      "componentType": 5126,
      "count": 847,
      "max": [
        0.9980897307395935,
        0.9999350309371948,
        0.9993970394134521
      ],
      "min": [
        -0.9976124167442322,
        -0.9990588426589966,
        -0.9993283748626709
      ],
      "type": "VEC3"
    },
    {
      "bufferView": 1,
      "byteOffset": 6736,
      "componentType": 5126,
      "count": 847,
      "max": [
        0.9888309836387634,
        -0.03918499872088432
      ],
      "min": [
        0.008545000106096268,
        -0.9913330078125
      ],
      "type": "VEC2"
    },
    {
      "bufferView": 0,
      "byteOffset": 15612,
      "componentType": 5125,
      "count": 4074,
      "type": "SCALAR"
    },
    {
      "bufferView": 2,
      "byteOffset": 40536,
      "componentType": 5126,
      "count": 167,
      "max": [
        0.10949400067329407,
        -0.03722300007939339,
        1.0004620552062988
      ],
      "min": [
        -0.11274600028991699,
        -0.16180700063705444,
        0.7412179708480835
      ],
      "type": "VEC3"
    },
    {
      "bufferView": 2,
      "byteOffset": 42540,
      "componentType": 5126,
      "count": 167,
      "max": [
        0.9879738092422485,
        -0.09499748796224594,
        0.35231301188468933
      ],
      "min": [
        -0.9831297397613525,
        -0.9997588992118835,
        -0.9601017236709595
      ],
      "type": "VEC3"
    },
    {
      "bufferView": 1,
      "byteOffset": 13512,
      "componentType": 5126,
      "count": 167,
      "max": [
        0.9911500215530396,
        -0.1558230072259903
      ],
      "min": [
        0.0110470000654459,
        -0.8999019861221313
      ],
      "type": "VEC2"
    },
    {
      "bufferView": 0,
      "byteOffset": 31908,
      "componentType": 5125,
      "count": 882,
      "type": "SCALAR"
    }
  ],
  "asset": {
    "extras": {
      "author": "Silviso (https://sketchfab.com/Silviso)",
      "license": "CC-BY-4.0 (http://creativecommons.org/licenses/by/4.0/)",
      "source": "https://sketchfab.com/3d-models/wii-el-chavo-chavo-461db38a83aa4b15a391483afb39935f",
      "title": "Wii - El Chavo - Chavo"
    },
    "generator": "Sketchfab-12.67.0",
    "version": "2.0"
  },
  "bufferViews": [
    {
      "buffer": 0,
      "byteLength": 35436,
      "name": "floatBufferViews",
      "target": 34963
    },
    {
      "buffer": 0,
      "byteLength": 14848,
      "byteOffset": 35436,
      "byteStride": 8,
      "name": "floatBufferViews",
      "target": 34962
    },
    {
      "buffer": 0,
      "byteLength": 44544,
      "byteOffset": 50284,
      "byteStride": 12,
      "name": "floatBufferViews",
      "target": 34962
    }
  ],
  "buffers": [
    {
      "byteLength": 94828,
      "uri": "scene.bin"
    }
  ],
  "images": [
    {
      "uri": "textures/body_baseColor.png"
    },
    {
      "uri": "textures/clothes_baseColor.png"
    },
    {
      "uri": "textures/face_baseColor.png"
    }
  ],
  "materials": [
    {
      "doubleSided": true,
      "name": "body",
      "pbrMetallicRoughness": {
        "baseColorTexture": {
          "index": 0
        },
        "metallicFactor": 0.0
      }
    },
    {
      "doubleSided": true,
      "name": "clothes",
      "pbrMetallicRoughness": {
        "baseColorTexture": {
          "index": 1
        },
        "metallicFactor": 0.0
      }
    },
    {
      "doubleSided": true,
      "name": "face",
      "pbrMetallicRoughness": {
        "baseColorTexture": {
          "index": 2
        },
        "metallicFactor": 0.0
      }
    }
  ],
  "meshes": [
    {
      "name": "Object_0",
      "primitives": [
        {
          "attributes": {
            "NORMAL": 1,
            "POSITION": 0,
            "TEXCOORD_0": 2
          },
          "indices": 3,
          "material": 0,
          "mode": 4
        }
      ]
    },
    {
      "name": "Object_1",
      "primitives": [
        {
          "attributes": {
            "NORMAL": 5,
            "POSITION": 4,
            "TEXCOORD_0": 6
          },
          "indices": 7,
          "material": 1,
          "mode": 4
        }
      ]
    },
    {
      "name": "Object_2",
      "primitives": [
        {
          "attributes": {
            "NORMAL": 9,
            "POSITION": 8,
            "TEXCOORD_0": 10
          },
          "indices": 11,
          "material": 2,
          "mode": 4
        }
      ]
    }
  ],
  "nodes": [
    {
      "children": [
        1
      ],
      "matrix": [
        1.0,
        0.0,
        0.0,
        0.0,
        0.0,
        2.220446049250313e-16,
        -1.0,
        0.0,
        0.0,
        1.0,
        2.220446049250313e-16,
        0.0,
        0.0,
        0.0,
        0.0,
        1.0
      ],
      "name": "Sketchfab_model"
    },
    {
      "children": [
        2,
        3,
        4
      ],
      "name": "chavo.obj.cleaner.materialmerger.gles"
    },
    {
      "mesh": 0,
      "name": "Object_2"
    },
    {
      "mesh": 1,
      "name": "Object_3"
    },
    {
      "mesh": 2,
      "name": "Object_4"
    }
  ],
  "samplers": [
    {
      "magFilter": 9729,
      "minFilter": 9987,
      "wrapS": 10497,
      "wrapT": 10497
    }
  ],
  "scene": 0,
  "scenes": [
    {
      "name": "Sketchfab_Scene",
      "nodes": [
        0
      ]
    }
  ],
  "textures": [
    {
      "sampler": 0,
      "source": 0
    },
    {
      "sampler": 0,
      "source": 1
    },
    {
      "sampler": 0,
      "source": 2
    }
  ]
}
