{
  "accessors": [
    {
      "bufferView": 3,
      "componentType": 5126,
      "count": 2188,
      "max": [
        19.302461624145508,
        50.14945602416992,
        7.553970813751221
      ],
      "min": [
        -19.302412033081055,
        -0.0027860000263899565,
        -7.834011077880859
      ],
      "type": "VEC3"
    },
    {
      "bufferView": 3,
      "byteOffset": 26256,
      "componentType": 5126,
      "count": 2188,
      "max": [
        0.9998415112495422,
        0.9995101690292358,
        0.999965250492096
      ],
      "min": [
        -0.9998415112495422,
        -0.9999926090240479,
        -0.9997933506965637
      ],
      "type": "VEC3"
    },
    {
      "bufferView": 2,
      "componentType": 5126,
      "count": 2188,
      "max": [
        0.9971320033073425,
        0.9995250105857849
      ],
      "min": [
        0.012985000386834145,
        0.009277000091969967
      ],
      "type": "VEC2"
    },
    {
      "bufferView": 1,
      "componentType": 5125,
      "count": 9318,
      "type": "SCALAR"
    },
    {
      "bufferView": 5,
      "componentType": 5126,
      "count": 53,
      "max": [
        1.0,
        1.0,
        1.0,
        0.0,
        0.9997554421424866,
        1.0,
        0.9981419444084167,
        0.0,
        0.9981419444084167,
        0.9997554421424866,
        1.0,
        0.0,
        33.54714584350586,
        31.276607513427734,
        34.023197174072266,
        1.0
      ],
      "min": [
        -0.963925302028656,
        -0.8656888604164124,
        -0.9556484222412109,
        0.0,
        -0.999786913394928,
        -0.887735903263092,
        -0.9584293961524963,
        0.0,
        -0.31947335600852966,
        -0.9944940805435181,
        -0.9592476487159729,
        0.0,
        -37.14656448364258,
        -16.21735382080078,
        -34.02317810058594,
        1.0
      ],
      "type": "MAT4"
    },
    {
      "bufferView": 0,
      "componentType": 5123,
      "count": 2188,
      "type": "VEC4"
    },
    {
      "bufferView": 4,
      "componentType": 5126,
      "count": 2188,
      "max": [
        1.0,
        0.49411800503730774,
        0.31640100479125977,
        0.0
      ],
      "min": [
        0.3564479947090149,
        0.0,
        0.0,
        0.0
      ],
      "type": "VEC4"
    }
  ],
  "asset": {
    "extras": {
      "author": "Guilherme Navarro (https://sketchfab.com/guinavarro.al)",
      "license": "CC-BY-4.0 (http://creativecommons.org/licenses/by/4.0/)",
      "source": "https://sketchfab.com/3d-models/quico-el-chavo-30f67b212e60426b8452ebb77d50f667",
      "title": "Quico (El Chavo)"
    },
    "generator": "Sketchfab-16.28.0",
    "version": "2.0"
  },
  "bufferViews": [
    {
      "buffer": 0,
      "byteLength": 17504,
      "byteStride": 8,
      "name": "shortBufferViews",
      "target": 34962
    },
    {
      "buffer": 0,
      "byteLength": 37272,
      "byteOffset": 17504,
      "name": "floatBufferViews",
      "target": 34963
    },
    {
      "buffer": 0,
      "byteLength": 17504,
      "byteOffset": 54776,
      "byteStride": 8,
      "name": "floatBufferViews",
      "target": 34962
    },
    {
      "buffer": 0,
      "byteLength": 52512,
      "byteOffset": 72280,
      "byteStride": 12,
      "name": "floatBufferViews",
      "target": 34962
    },
    {
      "buffer": 0,
      "byteLength": 35008,
      "byteOffset": 124792,
      "byteStride": 16,
      "name": "floatBufferViews",
      "target": 34962
    },
    {
      "buffer": 0,
      "byteLength": 3392,
      "byteOffset": 159800,
      "name": "floatBufferViews"
    }
  ],
  "buffers": [
    {
      "byteLength": 163192,
      "uri": "scene.bin"
    }
  ],
  "images": [
    {
      "uri": "textures/quico_baseColor.png"
    }
  ],
  "materials": [
    {
      "doubleSided": true,
      "name": "quico",
      "pbrMetallicRoughness": {
        "baseColorTexture": {
          "index": 0
        },
        "metallicFactor": 0.0,
        "roughnessFactor": 0.5
      }
    }
  ],
  "meshes": [
    {
      "name": "mesh_0",
      "primitives": [
        {
          "attributes": {
            "JOINTS_0": 5,
            "NORMAL": 1,
            "POSITION": 0,
            "TEXCOORD_0": 2,
            "WEIGHTS_0": 6
          },
          "indices": 3,
          "material": 0,
          "mode": 4
        }
      ]
    }
  ],
  "nodes": [
    {
      "children": [
        1
      ],
      "matrix": [
        1.0,
        0.0,
        0.0,
        0.0,
        0.0,
        2.220446049250313e-16,
        -1.0,
        0.0,
        0.0,
        1.0,
        2.220446049250313e-16,
        0.0,
        0.0,
        0.0,
        0.0,
        1.0
      ],
      "name": "Sketchfab_model"
    },
    {
      "children": [
        2
      ],
      "name": "root"
    },
    {
      "children": [
        3
      ],
      "matrix": [
        1.0,
        0.0,
        0.0,
        0.0,
        0.0,
        2.220446049250313e-16,
        1.0,
        0.0,
        0.0,
        -1.0,
        2.220446049250313e-16,
        0.0,
        0.0,
        0.0,
        0.0,
        1.0
      ],
      "name": "GLTF_SceneRootNode"
    },
    {
      "children": [
        4
      ],
      "name": "quico.qc_skeleton_53"
    },
    {
      "children": [
        5,
        7,
        6
      ],
      "name": "GLTF_created_0"
    },
    {
      "children": [
        8
      ],
      "name": "GLTF_created_0_rootJoint"
    },
    {
      "name": "quico_52"
    },
    {
      "mesh": 0,
      "name": "Object_7",
      "skin": 0
    },
    {
      "children": [
        9
      ],
      "name": "Bip001_51",
      "rotation": [
        -0.5150079131126404,
        -0.515007734298706,
        -0.48452749848365784,
        0.4845276474952698
      ],
      "scale": [
        1.000000238418579,
        1.0,
        1.000000238418579
      ],
      "translation": [
        1.7999996998696588e-05,
        19.421875,
        -3.2753915786743164
      ]
    },
    {
      "children": [
        10
      ],
      "name": "Bip001-Pelvis_50",
      "rotation": [
        -0.49999964237213135,
        -0.5000002980232239,
        -0.4999998211860657,
        0.5000003576278687
      ],
      "scale": [
        0.9999999403953552,
        0.9999999403953552,
        1.0
      ],
      "translation": [
        -1.192182139675424e-07,
        -3.1408400186228036e-12,
        -4.500150680541992e-06
      ]
    },
    {
      "children": [
        11,
        52,
        56
      ],
      "name": "Bip001-Spine_49",
      "rotation": [
        2.5393712803634116e-06,
        -8.953170436143409e-07,
        0.04152805730700493,
        0.9991373419761658
      ],
      "translation": [
        2.6145739555358887,
        -0.005387875717133284,
        4.000011358584743e-06
      ]
    },
    {
      "children": [
        12,
        50
      ],
      "name": "Bip001-Spine1_40",
      "rotation": [
        -2.9974621611472685e-06,
        -1.2338959720636922e-07,
        0.04112989082932472,
        0.9991537928581238
      ],
      "scale": [
        0.9999998807907104,
        0.9999999403953552,
        1.0
      ],
      "translation": [
        6.7942795753479,
        -0.005394484847784042,
        5.514067501211084e-12
      ]
    },
    {
      "children": [
        13,
        31,
        49
      ],
      "name": "Bip001-Neck_37",
      "rotation": [
        -4.841141958422668e-07,
        -1.2503326729529363e-07,
        0.2500665485858917,
        0.9682286381721497
      ],
      "translation": [
        7.7136406898498535,
        0.14277344942092896,
        -9.999963594964356e-07
      ]
    },
    {
      "children": [
        14
      ],
      "name": "Bip001-L-Clavicle_17",
      "rotation": [
        0.5883126258850098,
        -0.14517684280872345,
        0.768828809261322,
        0.20424064993858337
      ],
      "scale": [
        1.0000001192092896,
        1.0000001192092896,
        1.0000001192092896
      ],
      "translation": [
        -0.8739133477210999,
        0.32049453258514404,
        0.6833197474479675
      ]
    },
    {
      "children": [
        15
      ],
      "name": "Bip001-L-UpperArm_16",
      "rotation": [
        -0.04463399946689606,
        0.1482621431350708,
        -0.07843710482120514,
        0.9848216772079468
      ],
      "scale": [
        1.0000001192092896,
        1.0,
        1.0000001192092896
      ],
      "translation": [
        2.435258626937866,
        4.442521515102271e-07,
        8.39305175759364e-06
      ]
    },
    {
      "children": [
        16,
        30
      ],
      "name": "Bip001-L-ForeTwist_15",
      "rotation": [
        0.020900489762425423,
        -0.0029125597793608904,
        -0.13798728585243225,
        0.99020916223526
      ],
      "scale": [
        1.0000001192092896,
        1.0000001192092896,
        1.0000001192092896
      ],
      "translation": [
        6.350738525390625,
        -0.05780694633722305,
        -0.14520660042762756
      ]
    },
    {
      "children": [
        17
      ],
      "name": "Bip001-L-Forearm_13",
      "rotation": [
        -0.02110343426465988,
        5.170301164980629e-07,
        -4.873537022831442e-07,
        0.9997773170471191
      ],
      "scale": [
        1.0000001192092896,
        0.9999998807907104,
        0.9999999403953552
      ],
      "translation": [
        0.09102392196655273,
        0.17034320533275604,
        0.6911036968231201
      ]
    },
    {
      "children": [
        18,
        21,
        24,
        27
      ],
      "name": "Bip001-L-Hand_12",
      "rotation": [
        -0.6608709692955017,
        -0.011311126872897148,
        -0.03312680497765541,
        0.7496827840805054
      ],
      "scale": [
        1.0000001192092896,
        0.9999998211860657,
        1.0
      ],
      "translation": [
        7.083227157592773,
        -0.015346772037446499,
        -0.5524672865867615
      ]
    },
    {
      "children": [
        19
      ],
      "name": "Bip001-L-Finger0_2",
      "rotation": [
        0.5784958004951477,
        0.4589320421218872,
        -0.13741274178028107,
        0.6601831316947937
      ],
      "scale": [
        1.0000001192092896,
        1.000000238418579,
        1.0
      ],
      "translation": [
        0.7116713523864746,
        0.130739226937294,
        -1.0205110311508179
      ]
    },
    {
      "children": [
        20
      ],
      "name": "Bip001-L-Finger01_1",
      "rotation": [
        -4.493912229008856e-07,
        -5.069935582469043e-08,
        0.05685082823038101,
        0.9983826875686646
      ],
      "scale": [
        1.000000238418579,
        0.9999999403953552,
        1.0
      ],
      "translation": [
        0.9701041579246521,
        -2.8479746561060892e-06,
        -2.8610195386136184e-06
      ]
    },
    {
      "name": "Bip001-L-Finger02_0",
      "rotation": [
        -4.866178127116427e-09,
        -1.033350205403849e-08,
        0.19271427392959595,
        0.9812549352645874
      ],
      "scale": [
        1.0,
        0.9999999403953552,
        0.9999998807907104
      ],
      "translation": [
        1.3455270528793335,
        3.3624141906329896e-06,
        -1.549722924210073e-06
      ]
    },
    {
      "children": [
        22
      ],
      "name": "Bip001-L-Finger1_5",
      "rotation": [
        0.062283966690301895,
        0.04407189413905144,
        0.09579724818468094,
        0.9924723505973816
      ],
      "scale": [
        1.0,
        1.000000238418579,
        1.0000001192092896
      ],
      "translation": [
        3.321082353591919,
        0.10063380748033524,
        -1.2092667818069458
      ]
    },
    {
      "children": [
        23
      ],
      "name": "Bip001-L-Finger11_4",
      "rotation": [
        3.44848949396237e-08,
        2.0676768741623164e-08,
        0.11640200763940811,
        0.9932022094726563
      ],
      "scale": [
        1.0000001192092896,
        0.9999998807907104,
        0.9999999403953552
      ],
      "translation": [
        1.303510069847107,
        -3.423321231821319e-06,
        -2.324597289771191e-06
      ]
    },
    {
      "name": "Bip001-L-Finger12_3",
      "rotation": [
        -3.8963911208611535e-08,
        -1.3764589468223676e-08,
        0.11640257388353348,
        0.9932022094726563
      ],
      "scale": [
        1.000000238418579,
        1.0,
        1.0
      ],
      "translation": [
        0.939909815788269,
        -2.453780098221614e-06,
        -7.748593588985386e-07
      ]
    },
    {
      "children": [
        25
      ],
      "name": "Bip001-L-Finger2_8",
      "rotation": [
        -0.0018968391232192516,
        -0.01922682672739029,
        0.0776398554444313,
        0.9967942833900452
      ],
      "scale": [
        1.0,
        1.0000001192092896,
        1.0000001192092896
      ],
      "translation": [
        3.2813031673431396,
        8.484403224429116e-06,
        4.306756181904348e-06
      ]
    },
    {
      "children": [
        26
      ],
      "name": "Bip001-L-Finger21_7",
      "rotation": [
        -8.821690933302762e-09,
        -1.3896715778116686e-08,
        0.11640206724405289,
        0.993202269077301
      ],
      "scale": [
        0.9999998807907104,
        0.9999998807907104,
        1.0
      ],
      "translation": [
        1.4095780849456787,
        1.1483016351121478e-06,
        -2.145779717466212e-06
      ]
    },
    {
      "name": "Bip001-L-Finger22_6",
      "rotation": [
        -9.247553833802158e-08,
        9.804357432585675e-07,
        0.1164020374417305,
        0.993202269077301
      ],
      "scale": [
        1.0000001192092896,
        1.0000001192092896,
        1.0
      ],
      "translation": [
        1.0781166553497314,
        -4.156445811531739e-06,
        -3.576265044102911e-07
      ]
    },
    {
      "children": [
        28
      ],
      "name": "Bip001-L-Finger3_11",
      "rotation": [
        -0.035735249519348145,
        -0.06719964742660522,
        0.040590062737464905,
        0.99627286195755
      ],
      "scale": [
        0.9999998211860657,
        1.000000238418579,
        0.9999999403953552
      ],
      "translation": [
        3.272409200668335,
        -0.04054637998342514,
        1.3757966756820679
      ]
    },
    {
      "children": [
        29
      ],
      "name": "Bip001-L-Finger31_10",
      "rotation": [
        -0.010170242749154568,
        -0.0009612819994799793,
        0.13863493502140045,
        0.9902908802032471
      ],
      "scale": [
        0.9999998211860657,
        1.0,
        1.0
      ],
      "translation": [
        1.1719022989273071,
        6.106703040131833e-06,
        -5.936758498137351e-07
      ]
    },
    {
      "name": "Bip001-L-Finger32_9",
      "rotation": [
        -0.010146315209567547,
        -0.0011896233772858977,
        0.11639648675918579,
        0.9931502938270569
      ],
      "scale": [
        1.0,
        1.0000001192092896,
        1.0
      ],
      "translation": [
        1.0270767211914063,
        -6.5669496507325675e-06,
        9.325994199116394e-09
      ]
    },
    {
      "name": "Bip001-L-ForeTwist1_14",
      "rotation": [
        0.02110142633318901,
        5.113700467518356e-07,
        -5.186976750337635e-07,
        0.9997773766517639
      ],
      "scale": [
        1.0000001192092896,
        1.0000001192092896,
        1.0
      ],
      "translation": [
        3.702472448348999,
        0.13168568909168243,
        0.13976885378360748
      ]
    },
    {
      "children": [
        32
      ],
      "name": "Bip001-R-Clavicle_35",
      "rotation": [
        -0.5883128643035889,
        0.1451748013496399,
        0.768828809261322,
        0.20424191653728485
      ],
      "scale": [
        0.9999999403953552,
        1.0,
        0.9999999403953552
      ],
      "translation": [
        -0.8739122152328491,
        0.32049790024757385,
        -0.6833178997039795
      ]
    },
    {
      "children": [
        33
      ],
      "name": "Bip001-R-UpperArm_34",
      "rotation": [
        0.04463362321257591,
        -0.14826157689094543,
        -0.0784367248415947,
        0.9848217964172363
      ],
      "scale": [
        1.0000001192092896,
        1.000000238418579,
        0.9999999403953552
      ],
      "translation": [
        2.435255289077759,
        -1.6133883207203326e-07,
        -1.3547020898840856e-05
      ]
    },
    {
      "children": [
        34,
        48
      ],
      "name": "Bip001-R-ForeTwist_33",
      "rotation": [
        -0.020899901166558266,
        0.0029129928443580866,
        -0.13798779249191284,
        0.9902091026306152
      ],
      "scale": [
        0.9999998807907104,
        0.9999999403953552,
        0.9999998211860657
      ],
      "translation": [
        6.339320659637451,
        -0.07101425528526306,
        0.1886633187532425
      ]
    },
    {
      "children": [
        35
      ],
      "name": "Bip001-R-Forearm_31",
      "rotation": [
        0.021102432161569595,
        -1.649264613767798e-09,
        5.651313639276623e-09,
        0.9997773170471191
      ],
      "scale": [
        0.9999998807907104,
        0.9999998807907104,
        0.9999998211860657
      ],
      "translation": [
        0.9223162531852722,
        0.31910374760627747,
        -0.7213817834854126
      ]
    },
    {
      "children": [
        36,
        39,
        42,
        45
      ],
      "name": "Bip001-R-Hand_30",
      "rotation": [
        0.6608717441558838,
        0.011309921741485596,
        -0.03312583267688751,
        0.7496821284294128
      ],
      "scale": [
        0.9999998807907104,
        1.0,
        0.9999999403953552
      ],
      "translation": [
        6.259307384490967,
        -0.14688725769519806,
        0.5455677509307861
      ]
    },
    {
      "children": [
        37
      ],
      "name": "Bip001-R-Finger0_20",
      "rotation": [
        -0.5784958600997925,
        -0.4589327871799469,
        -0.137412890791893,
        0.6601825952529907
      ],
      "scale": [
        0.9999999403953552,
        0.9999998211860657,
        0.9999999403953552
      ],
      "translation": [
        0.7116730213165283,
        0.1307363659143448,
        1.0205107927322388
      ]
    },
    {
      "children": [
        38
      ],
      "name": "Bip001-R-Finger01_19",
      "rotation": [
        -5.227853989708819e-07,
        4.7358389565488324e-07,
        0.0568518228828907,
        0.9983826279640198
      ],
      "scale": [
        1.0,
        1.0,
        1.0000001192092896
      ],
      "translation": [
        0.9700976610183716,
        -5.193312517803861e-07,
        -1.001357759378152e-05
      ]
    },
    {
      "name": "Bip001-R-Finger02_18",
      "rotation": [
        3.987843228969723e-07,
        6.010820925439475e-07,
        0.19271427392959595,
        0.9812549352645874
      ],
      "scale": [
        1.0000001192092896,
        1.0000001192092896,
        1.0
      ],
      "translation": [
        1.3455287218093872,
        -2.289193844262627e-06,
        3.099478135482059e-06
      ]
    },
    {
      "children": [
        40
      ],
      "name": "Bip001-R-Finger1_23",
      "rotation": [
        -0.06228400766849518,
        -0.04407186433672905,
        0.09579674154520035,
        0.9924723505973816
      ],
      "scale": [
        1.0,
        0.9999999403953552,
        1.0
      ],
      "translation": [
        3.321080207824707,
        0.10062313824892044,
        1.20927095413208
      ]
    },
    {
      "children": [
        41
      ],
      "name": "Bip001-R-Finger11_22",
      "rotation": [
        5.011977464164374e-07,
        1.2249807923581102e-07,
        0.1164025068283081,
        0.9932021498680115
      ],
      "scale": [
        1.0,
        0.9999999403953552,
        1.0
      ],
      "translation": [
        1.303510308265686,
        -4.426578016136773e-06,
        4.7682814852123556e-07
      ]
    },
    {
      "name": "Bip001-R-Finger12_21",
      "rotation": [
        3.469252263244016e-08,
        1.4929272040831165e-08,
        0.11640150845050812,
        0.993202269077301
      ],
      "scale": [
        1.0,
        0.9999999403953552,
        1.0
      ],
      "translation": [
        0.9399052262306213,
        1.0212006600340828e-06,
        1.788099268651422e-07
      ]
    },
    {
      "children": [
        43
      ],
      "name": "Bip001-R-Finger2_26",
      "rotation": [
        0.0018968349322676659,
        0.019226809963583946,
        0.07763883471488953,
        0.9967943429946899
      ],
      "scale": [
        1.0,
        1.0,
        0.9999998807907104
      ],
      "translation": [
        3.281301498413086,
        4.677975084632635e-06,
        -1.0595680066671775e-07
      ]
    },
    {
      "children": [
        44
      ],
      "name": "Bip001-R-Finger21_25",
      "rotation": [
        -1.525254234024942e-08,
        2.293162637556634e-08,
        0.11640254408121109,
        0.9932021498680115
      ],
      "scale": [
        1.0000001192092896,
        1.0000001192092896,
        0.9999998807907104
      ],
      "translation": [
        1.4095829725265503,
        -1.38499644890544e-05,
        -5.960717430752993e-07
      ]
    },
    {
      "name": "Bip001-R-Finger22_24",
      "rotation": [
        -1.4219066812870551e-08,
        -1.3095343476265953e-08,
        0.11640206724405289,
        0.993202269077301
      ],
      "scale": [
        0.9999998211860657,
        0.9999998211860657,
        0.9999998807907104
      ],
      "translation": [
        1.0781166553497314,
        -7.051261945889564e-06,
        3.099445848420146e-06
      ]
    },
    {
      "children": [
        46
      ],
      "name": "Bip001-R-Finger3_29",
      "rotation": [
        0.035734787583351135,
        0.06719964742660522,
        0.04058953747153282,
        0.9962729215621948
      ],
      "scale": [
        1.0,
        0.9999997615814209,
        0.9999998211860657
      ],
      "translation": [
        3.2724032402038574,
        -0.04053088277578354,
        -1.3757911920547485
      ]
    },
    {
      "children": [
        47
      ],
      "name": "Bip001-R-Finger31_28",
      "rotation": [
        0.010170272551476955,
        0.0009612955618649721,
        0.13863492012023926,
        0.9902908802032471
      ],
      "scale": [
        1.0000001192092896,
        1.0,
        1.0
      ],
      "translation": [
        1.171892523765564,
        -1.1739105048036436e-06,
        1.7468438500145567e-06
      ]
    },
    {
      "name": "Bip001-R-Finger32_27",
      "rotation": [
        0.010146371088922024,
        0.0011891527101397514,
        0.1163964718580246,
        0.9931502938270569
      ],
      "scale": [
        1.0,
        1.0000001192092896,
        1.0
      ],
      "translation": [
        1.0270720720291138,
        -1.4103982266533421e-06,
        9.10149822175299e-09
      ]
    },
    {
      "name": "Bip001-R-ForeTwist1_32",
      "rotation": [
        -0.021102439612150192,
        -9.89329691947205e-07,
        -3.0541791318228206e-08,
        0.9997773766517639
      ],
      "scale": [
        0.9999998807907104,
        0.9999999403953552,
        0.9999998211860657
      ],
      "translation": [
        3.7098469734191895,
        0.14932730793952942,
        -0.18250998854637146
      ]
    },
    {
      "name": "Bip001-Head_36",
      "rotation": [
        8.245038359737736e-14,
        1.57742742479261e-13,
        -0.17078270018100739,
        0.9853087067604065
      ],
      "scale": [
        1.0000001192092896,
        1.000000238418579,
        1.0
      ],
      "translation": [
        2.7235889434814453,
        9.803075045056175e-07,
        1.9999795313196955e-06
      ]
    },
    {
      "children": [
        51
      ],
      "name": "Bip001-Xtra01_39",
      "rotation": [
        -2.7547611125555704e-07,
        2.4847763597790617e-06,
        -0.9939134120941162,
        0.11016414314508438
      ],
      "scale": [
        0.9999999403953552,
        0.9999999403953552,
        1.0
      ],
      "translation": [
        7.950860977172852,
        -2.193734884262085,
        -2.0000113636342576e-06
      ]
    },
    {
      "name": "Bip001-Xtra0102_38",
      "rotation": [
        -4.973533691554621e-07,
        5.1383402421834035e-08,
        -0.10276675969362259,
        0.9947054982185364
      ],
      "scale": [
        0.9999998807907104,
        0.9999998807907104,
        1.0
      ],
      "translation": [
        4.222024440765381,
        -0.0031890568789094687,
        -1.292678724479357e-11
      ]
    },
    {
      "children": [
        53
      ],
      "name": "Bip001-L-Thigh_44",
      "rotation": [
        -0.1767607480287552,
        -0.9653916954994202,
        0.17053478956222534,
        0.08770657330751419
      ],
      "scale": [
        1.0,
        0.9999998211860657,
        1.0
      ],
      "translation": [
        -2.605109691619873,
        0.22234955430030823,
        1.9255874156951904
      ]
    },
    {
      "children": [
        54
      ],
      "name": "Bip001-L-Calf_43",
      "rotation": [
        -4.987624038221838e-07,
        1.1926688614494196e-07,
        -0.3048367500305176,
        0.9524046182632446
      ],
      "scale": [
        0.9999999403953552,
        0.9999998807907104,
        1.0
      ],
      "translation": [
        7.893366813659668,
        -1.972835434571607e-06,
        2.9502753022825345e-06
      ]
    },
    {
      "children": [
        55
      ],
      "name": "Bip001-L-Foot_42",
      "rotation": [
        0.008118473924696445,
        -0.10372276604175568,
        0.14952097833156586,
        0.9832696318626404
      ],
      "scale": [
        1.0000001192092896,
        1.0000001192092896,
        0.9999999403953552
      ],
      "translation": [
        7.79518461227417,
        -2.5431504582229536e-06,
        1.2980752899238723e-06
      ]
    },
    {
      "name": "Bip001-L-Toe0_41",
      "rotation": [
        2.160308667953359e-06,
        -2.0924255750287557e-06,
        0.718714714050293,
        0.6953051090240479
      ],
      "scale": [
        0.9999998211860657,
        0.9999997019767761,
        0.9999998807907104
      ],
      "translation": [
        4.812058925628662,
        4.812510013580322,
        3.0280722057796083e-05
      ]
    },
    {
      "children": [
        57
      ],
      "name": "Bip001-R-Thigh_48",
      "rotation": [
        0.17675980925559998,
        0.965392529964447,
        0.1705305576324463,
        0.08770761638879776
      ],
      "scale": [
        1.000000238418579,
        1.0,
        1.0
      ],
      "translation": [
        -2.605109930038452,
        0.2223307490348816,
        -1.9255881309509277
      ]
    },
    {
      "children": [
        58
      ],
      "name": "Bip001-R-Calf_47",
      "rotation": [
        -9.769118847202662e-09,
        1.951108963282877e-08,
        -0.30483725666999817,
        0.9524044394493103
      ],
      "scale": [
        1.0,
        1.0,
        0.9999999403953552
      ],
      "translation": [
        7.893364906311035,
        -1.4397304539670586e-06,
        1.3411990948952734e-06
      ]
    },
    {
      "children": [
        59
      ],
      "name": "Bip001-R-Foot_46",
      "rotation": [
        -0.008117045275866985,
        0.10372297465801239,
        0.1495213508605957,
        0.9832695722579956
      ],
      "scale": [
        0.9999999403953552,
        1.0,
        0.9999998211860657
      ],
      "translation": [
        7.795188903808594,
        3.476716756267706e-06,
        -3.104934876319021e-06
      ]
    },
    {
      "name": "Bip001-R-Toe0_45",
      "rotation": [
        -3.2254597499559168e-06,
        3.1242495879268972e-06,
        0.718714714050293,
        0.6953051090240479
      ],
      "scale": [
        0.9999997615814209,
        0.9999996423721313,
        0.9999999403953552
      ],
      "translation": [
        4.8120574951171875,
        4.812507152557373,
        -4.506250479607843e-05
      ]
    }
  ],
  "samplers": [
    {
      "magFilter": 9729,
      "minFilter": 9987,
      "wrapS": 10497,
      "wrapT": 10497
    }
  ],
  "scene": 0,
  "scenes": [
    {
      "name": "Sketchfab_Scene",
      "nodes": [
        0
      ]
    }
  ],
  "skins": [
    {
      "inverseBindMatrices": 4,
      "joints": [
        5,
        8,
        9,
        10,
        11,
        12,
        13,
        14,
        15,
        16,
        17,
        18,
        19,
        20,
        21,
        22,
        23,
        24,
        25,
        26,
        27,
        28,
        29,
        30,
        31,
        32,
        33,
        34,
        35,
        36,
        37,
        38,
        39,
        40,
        41,
        42,
        43,
        44,
        45,
        46,
        47,
        48,
        49,
        50,
        51,
        52,
        53,
        54,
        55,
        56,
        57,
        58,
        59
      ],
      "skeleton": 5
    }
  ],
  "textures": [
    {
      "sampler": 0,
      "source": 0
    }
  ]
}
